# xmcd
#
# Track frame offsets: 
#        150
#        11940
#        30404
#        53748
#        65600
#        84012
#        112062
#        132292
#        156832
#        173250
#        183581
#        204900
#
# Disc length: 3000 seconds
#
# Revision: 2
# Processed by: cddbd v1.4PL0 Copyright (c) Steve Scherf et al.
# Submitted via: ExactAudioCopy v0.90b4
#
DISCID=930bb60c
DTITLE=Jan Spaleny - Ma vina
DYEAR=2001
DGENRE=Blues
TTITLE0=Znam te malo (part I.)
TTITLE1=Sekacova Lady
TTITLE2=Davno
TTITLE3=Ma vina (Guilty)
TTITLE4=Nez se vdas
TTITLE5=Myslim ted na tebe
TTITLE6=Quasimodo
TTITLE7=Stinohra
TTITLE8=Tiha
TTITLE9=K pomilovani
TTITLE10=Dnes opoustim pristav (Shiver me timbers)
TTITLE11=Znam te malo (part II.)
EXTD=YEAR: 2001 ID3G:   0
EXTT0=
EXTT1=
EXTT2=
EXTT3=
EXTT4=
EXTT5=
EXTT6=
EXTT7=
EXTT8=
EXTT9=
EXTT10=
EXTT11=
PLAYORDER=
